<svg xmlns="http://www.w3.org/2000/svg" xmlns:xlink="http://www.w3.org/1999/xlink" width="644" height="448" viewBox="0 0 644 448">
  <defs>
    <clipPath id="clip-path">
      <path id="Caminho_141" data-name="Caminho 141" d="M396.23,406.352c-9.95-6-18.217-1.559-18.467,9.909s7.61,25.632,17.56,31.627,18.217,1.563,18.467-9.909S406.181,412.352,396.23,406.352Z" transform="translate(-377.758 -403.679)" fill="none"/>
    </clipPath>
    <clipPath id="clip-path-2">
      <path id="Caminho_151" data-name="Caminho 151" d="M351.194,380.349c-9.95-6-18.217-1.563-18.472,9.908s7.615,25.628,17.56,31.628,18.217,1.559,18.471-9.909S361.14,386.344,351.194,380.349Z" transform="translate(-332.717 -377.675)" fill="none"/>
    </clipPath>
    <linearGradient id="linear-gradient" y1="0.5" x2="1" y2="0.5" gradientUnits="objectBoundingBox">
      <stop offset="0" stop-color="#c3c3c3"/>
      <stop offset="1" stop-color="#ddd"/>
    </linearGradient>
    <clipPath id="clip-iPhone_12_12_Pro_1">
      <rect width="644" height="448"/>
    </clipPath>
  </defs>
  <g id="iPhone_12_12_Pro_1" data-name="iPhone 12, 12 Pro – 1" clip-path="url(#clip-iPhone_12_12_Pro_1)">
    <g id="_10" data-name="10" transform="translate(-225.91 -291.047)">
      <g id="Grupo_109" data-name="Grupo 109" transform="translate(327.865 342.076)">
        <g id="Grupo_105" data-name="Grupo 105">
          <path id="Caminho_132" data-name="Caminho 132" d="M413.888,401.064c-1.906-1.744-3.793-3.506-5.639-5.311l-28.917,15.784c-5.713,3.317-6.55,28.57-2.914,37.826l29.495-18.032L425.7,415.173C421.752,410.445,417.88,405.685,413.888,401.064Z" transform="translate(-159.755 -147.445)" fill="#332e2a"/>
          <g id="Grupo_95" data-name="Grupo 95" transform="translate(220.381 263.596)">
            <g id="Grupo_94" data-name="Grupo 94">
              <g id="Grupo_88" data-name="Grupo 88" style="isolation: isolate">
                <path id="Caminho_133" data-name="Caminho 133" d="M436.71,430.774a68.477,68.477,0,0,0-11.024-17.333,50.681,50.681,0,0,0-12.444-10.478c-7.92-4.57-15.094-4.991-20.275-1.985l-15.668,9.1c5.181-3.007,12.356-2.586,20.275,1.99a50.552,50.552,0,0,1,12.444,10.473,68.54,68.54,0,0,1,11.023,17.333,53.589,53.589,0,0,1,4.922,21.335c-.028,8.979-3.2,15.3-8.308,18.268l15.668-9.1c5.112-2.97,8.281-9.289,8.308-18.268A53.592,53.592,0,0,0,436.71,430.774Z" transform="translate(-369 -399.058)" fill="#332e2a"/>
                <path id="Caminho_134" data-name="Caminho 134" d="M404.079,404.936c-15.733-9.085-28.523-1.795-28.574,16.256-.051,18.073,12.656,40.088,28.389,49.169s28.524,1.8,28.575-16.283C432.519,436.031,419.808,414.016,404.079,404.936Z" transform="translate(-375.505 -391.921)" fill="#454039"/>
              </g>
              <path id="Caminho_135" data-name="Caminho 135" d="M397.746,406.066c-11.287-6.518-20.465-1.286-20.5,11.667s9.081,28.764,20.368,35.282,20.47,1.286,20.507-11.685C418.151,428.377,409.033,412.584,397.746,406.066Z" transform="translate(-369.2 -383.814)" fill="#332e2a" opacity="0.3"/>
              <g id="Grupo_90" data-name="Grupo 90" transform="translate(9.306 19.927)" style="isolation: isolate">
                <path id="Caminho_136" data-name="Caminho 136" d="M386.608,403.63l.81-.046,5.172.583s1.119.153.337.365c-3.719,1-6.189,4.645-6.31,10.344-.213,9.687,6.426,21.645,14.826,26.71,5.1,3.076,9.677,2.905,12.532.129.569-.55-.356,1.337-.356,1.337l-1.688,3.007c-3.016,5.38-9.367,6.541-16.607,2.174-9.95-6-17.81-20.16-17.56-31.628C377.939,408.446,380.594,403.441,386.608,403.63Z" transform="translate(-376.642 -402.573)" fill="#bababa"/>
                <g id="Grupo_89" data-name="Grupo 89">
                  <path id="Caminho_137" data-name="Caminho 137" d="M397.132,406.2c10.566,6.37,18.916,21.4,18.647,33.584s-9.048,16.894-19.609,10.524-18.915-21.4-18.647-33.584S386.567,399.834,397.132,406.2Zm-.028,1.286c-9.95-6-18.217-1.559-18.466,9.909s7.609,25.632,17.56,31.627,18.217,1.563,18.466-9.909-7.609-25.628-17.56-31.628Z" transform="translate(-377.517 -403.365)" fill="#ddd"/>
                </g>
              </g>
              <g id="Grupo_93" data-name="Grupo 93" transform="translate(10.421 21.378)">
                <g id="Grupo_92" data-name="Grupo 92" clip-path="url(#clip-path)">
                  <g id="Grupo_91" data-name="Grupo 91" transform="translate(5.836 -0.195)" style="isolation: isolate">
                    <path id="Caminho_138" data-name="Caminho 138" d="M395.976,406.163c9.007,5.57,16.029,18.564,15.682,29.023s-7.933,14.414-16.945,8.84S378.685,425.458,379.032,415,386.965,400.589,395.976,406.163Z" transform="translate(-379.019 -403.637)" fill="#9d9d9d"/>
                    <path id="Caminho_139" data-name="Caminho 139" d="M392.1,406.9c6.629,4.1,11.8,13.66,11.537,21.353s-5.833,10.6-12.462,6.5-11.8-13.661-11.542-21.354S385.47,402.8,392.1,406.9Z" transform="translate(-376.83 -398.539)" fill="#ddd"/>
                    <path id="Caminho_140" data-name="Caminho 140" d="M379.656,414.119l0-.282c.259-7.7,5.26-11.135,11.611-8.544a15.833,15.833,0,0,1,2.4,1.235c4.242,2.623,7.952,7.235,10.306,12.314a26.47,26.47,0,0,1,2.664,11.685c-.287,8.646-6.564,11.921-14.012,7.313l-1.462-.893c6.629,4.1,12.208,1.189,12.463-6.5a23.486,23.486,0,0,0-2.369-10.394,25.734,25.734,0,0,0-9.169-10.959,13.823,13.823,0,0,0-2.137-1.1c-5.653-2.3-10.1.759-10.33,7.6l0,.25Z" transform="translate(-376.827 -400.727)" fill="#bababa"/>
                  </g>
                </g>
              </g>
            </g>
          </g>
          <path id="Caminho_142" data-name="Caminho 142" d="M368.844,375.063c-1.906-1.744-3.793-3.506-5.634-5.315l-28.921,15.788c-5.708,3.317-6.546,28.57-2.914,37.826l29.495-18.032,19.785-16.158C376.708,384.445,372.841,379.685,368.844,375.063Z" transform="translate(-323.068 -241.737)" fill="#332e2a"/>
          <g id="Grupo_103" data-name="Grupo 103" transform="translate(12.025 143.301)">
            <g id="Grupo_102" data-name="Grupo 102">
              <g id="Grupo_96" data-name="Grupo 96" style="isolation: isolate">
                <path id="Caminho_143" data-name="Caminho 143" d="M391.665,404.772a68.558,68.558,0,0,0-11.019-17.333A50.5,50.5,0,0,0,368.2,376.961c-7.92-4.57-15.094-5-20.271-1.984l-15.668,9.1c5.177-3.007,12.351-2.586,20.271,1.989a50.484,50.484,0,0,1,12.448,10.473A68.653,68.653,0,0,1,376,413.876a53.587,53.587,0,0,1,4.922,21.335c-.023,8.979-3.2,15.3-8.308,18.268l15.668-9.1c5.112-2.97,8.285-9.289,8.308-18.268A53.571,53.571,0,0,0,391.665,404.772Z" transform="translate(-323.955 -373.053)" fill="#332e2a"/>
                <path id="Caminho_144" data-name="Caminho 144" d="M359.039,378.932c-15.728-9.085-28.523-1.795-28.574,16.255-.051,18.073,12.657,40.088,28.389,49.169s28.523,1.795,28.574-16.283C387.479,410.022,374.771,388.012,359.039,378.932Z" transform="translate(-330.464 -365.916)" fill="#454039"/>
              </g>
              <path id="Caminho_145" data-name="Caminho 145" d="M352.71,380.062c-11.292-6.518-20.47-1.286-20.507,11.667s9.085,28.764,20.373,35.282,20.465,1.286,20.5-11.685C373.115,402.373,364,386.58,352.71,380.062Z" transform="translate(-324.158 -357.808)" fill="#332e2a" opacity="0.3"/>
              <g id="Grupo_98" data-name="Grupo 98" transform="translate(9.306 19.929)" style="isolation: isolate">
                <path id="Caminho_146" data-name="Caminho 146" d="M341.572,377.625l.805-.046,5.172.587s1.124.153.342.366c-3.724,1-6.189,4.644-6.314,10.343-.213,9.687,6.425,21.645,14.831,26.71,5.1,3.076,9.673,2.905,12.531.129.569-.55-.356,1.337-.356,1.337l-1.693,3.007c-3.016,5.375-9.367,6.536-16.607,2.174-9.946-6-17.81-20.16-17.56-31.628C332.9,382.441,335.558,377.44,341.572,377.625Z" transform="translate(-331.602 -376.573)" fill="#bababa"/>
                <g id="Grupo_97" data-name="Grupo 97">
                  <path id="Caminho_147" data-name="Caminho 147" d="M352.1,380.2c10.566,6.37,18.911,21.4,18.647,33.584s-9.048,16.894-19.614,10.524-18.911-21.409-18.647-33.589S341.53,373.83,352.1,380.2Zm-.028,1.286c-9.951-6-18.217-1.564-18.471,9.908s7.614,25.628,17.56,31.627,18.217,1.559,18.471-9.908-7.614-25.632-17.56-31.627Z" transform="translate(-332.476 -377.361)" fill="#ddd"/>
                </g>
              </g>
              <g id="Grupo_101" data-name="Grupo 101" transform="translate(10.421 21.379)">
                <g id="Grupo_100" data-name="Grupo 100" clip-path="url(#clip-path-2)">
                  <g id="Grupo_99" data-name="Grupo 99" transform="translate(5.841 -0.194)" style="isolation: isolate">
                    <path id="Caminho_148" data-name="Caminho 148" d="M350.932,380.159c9.011,5.57,16.033,18.564,15.682,29.018s-7.933,14.414-16.94,8.845S333.645,399.454,333.992,389,341.925,374.585,350.932,380.159Z" transform="translate(-333.979 -377.633)" fill="#9d9d9d"/>
                    <path id="Caminho_149" data-name="Caminho 149" d="M347.059,380.9c6.629,4.1,11.792,13.661,11.537,21.353s-5.838,10.6-12.467,6.5S334.338,395.1,334.592,387.4,340.43,376.8,347.059,380.9Z" transform="translate(-331.79 -372.534)" fill="#ddd"/>
                    <path id="Caminho_150" data-name="Caminho 150" d="M334.611,388.115l.009-.282c.255-7.7,5.255-11.134,11.607-8.544a16.1,16.1,0,0,1,2.405,1.235c4.242,2.623,7.947,7.235,10.3,12.314a26.459,26.459,0,0,1,2.665,11.685c-.287,8.646-6.56,11.921-14.012,7.314l-1.461-.893c6.629,4.1,12.212,1.188,12.467-6.5a23.587,23.587,0,0,0-2.369-10.4,25.785,25.785,0,0,0-9.169-10.954,13.863,13.863,0,0,0-2.142-1.1c-5.648-2.3-10.1.754-10.325,7.6l0,.25Z" transform="translate(-331.787 -374.723)" fill="#bababa"/>
                  </g>
                </g>
              </g>
            </g>
          </g>
          <path id="Caminho_152" data-name="Caminho 152" d="M767.177,587.866c0-.389,0-.777-.01-1.166a64.955,64.955,0,0,0-.735-8.553,73.753,73.753,0,0,0-7.771-23.231,5.57,5.57,0,0,1-.245-.509c-11.9-30.707-63.634-66.882-63.634-66.882l-66.262-77.79a20.263,20.263,0,0,0-4.482-3.923l-77.692-49.345a92.357,92.357,0,0,0-95.442-2.16l-20.817,11.935A202.519,202.519,0,0,0,372.373,415.6l-21.9,27.381c-10.242,12.814-17.888,27.714-20.9,43.84a100.553,100.553,0,0,0-1.707,18.4v9.4a6.928,6.928,0,0,0,3.372,6.13l4.931,2.951c-2.41-20.511,7.332-45.209,32.266-33.316,17.329,8.262,35.069,34.1,32.876,69.648L544.55,644c-2.479-20.539,7.115-45.32,32.113-33.395,17.329,8.267,35.069,34.1,32.876,69.653,30.661,12.606,60.077-1.425,92.435-17.292,33.741-16.552,58.656-37.322,64.434-53.781a14.979,14.979,0,0,0,.745-4.917C767.182,600.962,767.182,594.439,767.177,587.866ZM589.726,438.555a216,216,0,0,0,30.268-22.274,127.411,127.411,0,0,1,10.344,15.353l7.249,12.763,5.986,27.182Z" transform="translate(-327.864 -342.074)" fill="url(#linear-gradient)"/>
          <path id="Caminho_153" data-name="Caminho 153" d="M699.929,543.255c-2.207-3.391-9.858-11.921-17.611-20.341a390.854,390.854,0,0,0-37.109-35.324c-.079-.064-66.341-77.854-66.341-77.854a20.162,20.162,0,0,0-4.482-3.923l-77.693-49.345a92.348,92.348,0,0,0-95.442-2.16l-20.817,11.935a201.621,201.621,0,0,0-38.876,28.94c17.745-3.21,28.75,3.534,36.175,7.3,14.53,7.355,34.13,17.185,76.763,48.415,13.434,9.839,23.574,23.477,31.045,38.354,3.377,6.731,34.287,71.142,34.394,71.276,0,0,35.453,42.323,45.593,52.463,20.942,20.941,73.761-7.346,89.23-15.872,14.41-7.943,49.645-28.834,51.038-45.232C702.047,546.627,703.458,548.685,699.929,543.255Zm-159.854-104.7a216.005,216.005,0,0,0,30.268-22.274,127.413,127.413,0,0,1,10.343,15.353l7.249,12.763,5.986,27.182Z" transform="translate(-278.213 -342.076)" fill="#f2f2f2"/>
          <path id="Caminho_154" data-name="Caminho 154" d="M522.114,427.529a.556.556,0,0,0-.014-.685l-57.561-69.394a.543.543,0,0,0-.384-.2.587.587,0,0,0-.417.139c-27.612,24.67-45.945,33.135-86.112,51.695l-5.357,2.475a.589.589,0,0,0-.3.319.58.58,0,0,0,.028.44l39.1,78.692a.553.553,0,0,0,.5.305C463.683,479.765,505.377,450.154,522.114,427.529Zm-92.214-44a215.978,215.978,0,0,0,30.267-22.274,127.36,127.36,0,0,1,10.344,15.353l7.249,12.763,5.986,27.182Z" transform="translate(-168.038 -287.046)" fill="#969696"/>
          <path id="Caminho_155" data-name="Caminho 155" d="M461.26,429.529l-1.615,17.444c.338.361.675.712,1.013,1.069l1.767-18.647.023-.231-.148-.185c-.208-.259-21.46-26.331-56.321-55.507l-.74.884C438.487,402.185,459.312,427.161,461.26,429.529Z" transform="translate(-47.307 -228.234)" fill="#d0d0d0" opacity="0.6"/>
          <path id="Caminho_156" data-name="Caminho 156" d="M454.158,445.308l-3.562-1.8-12.453,3.728c-6.689-.842-42.4-42.947-55.655-59.188l-.893.731c1.966,2.415,48.318,59.064,56.566,59.624.111,0,12.323-3.655,12.323-3.655l3.483,1.763C454.033,446.1,454.094,445.706,454.158,445.308Z" transform="translate(-133.038 -175.397)" fill="#d0d0d0" opacity="0.6"/>
          <g id="Grupo_104" data-name="Grupo 104" transform="translate(238.163 139.268)" opacity="0.5">
            <path id="Caminho_157" data-name="Caminho 157" d="M408.9,373.193c-9.65,3.146-18.985,12.7-20.8,21.3s4.552,13.041,14.2,9.895,18.985-12.7,20.8-21.3S418.545,370.047,408.9,373.193Zm-.236,2.725c.592-.19,1.133-.278,1.7-.407l-4.58,13.392L395,385.821A30.139,30.139,0,0,1,408.66,375.917Zm12.217,8.511c-1.563,7.4-9.594,15.622-17.9,18.323s-13.781-1.11-12.217-8.507a19.854,19.854,0,0,1,3.016-6.666l13.295,3.807,5.547-16.233C418.6,374.691,422.172,378.3,420.876,384.429Z" transform="translate(-348.772 -372.181)" fill="#d3d3d3"/>
            <path id="Caminho_158" data-name="Caminho 158" d="M494.817,380.895c-.3-.671-13.2-8.776-13.707-8.549-36.017,11.533-73.608,32.673-101.534,54.6-1.43,1.124,4.038,15.807,12.212,14.4,5.144-.884,14.535-2.484,18.86-5.477a2.376,2.376,0,0,1,1.994-.407c21.307-10.8,53.281-25.854,75.787-49.618C488.554,382.527,496.122,383.795,494.817,380.895Z" transform="translate(-379.349 -371.603)" fill="#d3d3d3"/>
            <path id="Caminho_159" data-name="Caminho 159" d="M441.325,373.56c-3.488,12.948-32.724,27.672-54.646,26.812a75.6,75.6,0,0,1,24.513-19.614C429.825,371.344,441.325,373.56,441.325,373.56Z" transform="translate(-352.77 -368.006)" fill="#eaeaea"/>
          </g>
          <path id="Caminho_160" data-name="Caminho 160" d="M411.6,491.316a.553.553,0,0,1-.5-.305L372,412.319a.58.58,0,0,1-.028-.44.589.589,0,0,1,.3-.319l5.357-2.475c40.167-18.559,58.5-27.025,86.112-51.695a.549.549,0,0,1,.37-.139.562.562,0,0,1,.43.2L522.1,426.844a.556.556,0,0,1,.014.685c-16.737,22.625-58.43,52.236-110.389,63.778A.525.525,0,0,1,411.6,491.316Z" transform="translate(-168.038 -287.046)" fill="#4c543f" opacity="0.7" style="mix-blend-mode: multiply;isolation: isolate"/>
          <path id="Caminho_161" data-name="Caminho 161" d="M596.734,478.226l-66.47-79.4-82.7-52.606c-18.911-10.922-109.154,42.753-91.6,52.884,21.719,12.564,67.224,40,78.766,56.663L478.916,547.1a1.948,1.948,0,0,0,2.156,1.05c51.6-11.278,98.019-43.072,115.773-67.58A1.9,1.9,0,0,0,596.734,478.226ZM477.709,536.064l-39.1-78.7c44.469-20.562,62.741-28.473,91.6-54.262l57.56,69.394C570.195,496.253,527.919,524.906,477.709,536.064Z" transform="translate(-234.142 -332.35)" fill="#363636"/>
          <path id="Caminho_162" data-name="Caminho 162" d="M458.77,429.791c-1.355,21.326-6.629,81.6-7.328,89.59l-90.478-52.245c-15.4-8.886-7.323-95.044-7.24-95.914l-1.11-.106c-.347,3.576-8.22,87.745,7.795,96.992l91.237,52.68.759.435.074-.87c.06-.68,5.953-67.738,7.406-90.483Z" transform="translate(-246.239 -236.777)" fill="#969696" opacity="0.6"/>
          <path id="Caminho_163" data-name="Caminho 163" d="M484.812,474.124a.543.543,0,0,1-.277-.074L397.1,423.572a.571.571,0,0,1-.278-.546l6-57.726a.567.567,0,0,1,.56-.5.573.573,0,0,1,.245.056l.962.472c.888.43,1.772.856,2.665,1.365l33.917,19.582a91.154,91.154,0,0,1,39.047,45.269l5.2,13.156-.042,28.87a.554.554,0,0,1-.555.555ZM383.624,415.7a.589.589,0,0,1-.277-.069L340.7,391.015a.559.559,0,0,1-.213-.759l2.821-5.1A57.426,57.426,0,0,1,351.1,373.89c8.738-9.525,19.475-14.558,31.054-14.558a42.023,42.023,0,0,1,7.235.694.562.562,0,0,1,.467.611l-5.672,54.572a.582.582,0,0,1-.3.435A.574.574,0,0,1,383.624,415.7Z" transform="translate(-282.365 -279.505)" fill="#969696"/>
          <path id="Caminho_164" data-name="Caminho 164" d="M484.812,474.124a.543.543,0,0,1-.277-.074L397.1,423.572a.571.571,0,0,1-.278-.546l6-57.726a.567.567,0,0,1,.56-.5.573.573,0,0,1,.245.056l.962.472c.888.43,1.772.856,2.665,1.365l33.917,19.582a91.154,91.154,0,0,1,39.047,45.269l5.2,13.156-.042,28.87a.554.554,0,0,1-.555.555ZM383.624,415.7a.589.589,0,0,1-.277-.069L340.7,391.015a.559.559,0,0,1-.213-.759l2.821-5.1A57.426,57.426,0,0,1,351.1,373.89c8.738-9.525,19.475-14.558,31.054-14.558a42.023,42.023,0,0,1,7.235.694.562.562,0,0,1,.467.611l-5.672,54.572a.582.582,0,0,1-.3.435A.574.574,0,0,1,383.624,415.7Z" transform="translate(-282.365 -279.505)" fill="#1f231e" opacity="0.9" style="mix-blend-mode: multiply;isolation: isolate"/>
          <path id="Caminho_165" data-name="Caminho 165" d="M507.024,490.272,484.195,432.48A93.066,93.066,0,0,0,444.19,386.1l-33.922-19.586c-22.477-12.976-43.8-8.849-58.911,7.619a60.091,60.091,0,0,0-8.1,11.7l-3.09,5.593a2.215,2.215,0,0,0,.828,2.993ZM385.528,416.9l-42.646-24.624,2.817-5.1a56.544,56.544,0,0,1,7.716-11.162c8.627-9.4,19.221-14.377,30.642-14.377a41.845,41.845,0,0,1,7.143.689Zm101.192,58.416-87.444-50.478,6-57.732c1.2.6,2.392,1.129,3.594,1.823l33.922,19.581A90.6,90.6,0,0,1,481.6,433.507l5.195,13.156Z" transform="translate(-284.269 -281.261)" fill="#1e1e1e"/>
        </g>
        <path id="Caminho_166" data-name="Caminho 166" d="M439.722,396.064c-5.385-9.159-14.373-13.809-20.081-10.376s-5.968,13.642-.588,22.8,14.373,13.808,20.082,10.376S445.1,405.228,439.722,396.064Z" transform="translate(-11.248 -188.038)" fill="#f5fdff"/>
        <path id="Caminho_167" data-name="Caminho 167" d="M439.722,396.064c-5.385-9.159-14.373-13.809-20.081-10.376s-5.968,13.642-.588,22.8,14.373,13.808,20.082,10.376S445.1,405.228,439.722,396.064Z" transform="translate(-11.248 -188.038)" fill="#c1c1c1"/>
        <path id="Caminho_168" data-name="Caminho 168" d="M418.6,407.018c-6.513-8.405-16.566-11.6-22.445-7.128S390.789,414.8,397.3,423.2s16.565,11.6,22.449,7.128S425.118,415.423,418.6,407.018Z" transform="translate(-95.093 -139.771)" fill="#c1c1c1"/>
        <g id="Grupo_106" data-name="Grupo 106" transform="translate(350.699 262.077)">
          <path id="Caminho_169" data-name="Caminho 169" d="M467.648,399.056c-16.1,16.736-40.407,30.49-63.3,39.866a1.045,1.045,0,0,0-.643.958l-.032,16.954a1.036,1.036,0,0,0,1.221,1.045c9.844-2.086,55.7-28.056,63.926-39.792a3.678,3.678,0,0,0,.611-2.118V399.778A1.032,1.032,0,0,0,467.648,399.056Z" transform="translate(-403.676 -398.729)" fill="#c1c1c1"/>
          <path id="Caminho_170" data-name="Caminho 170" d="M404.9,443.583a1.038,1.038,0,0,1-1.217-1.031l0,3.631a1.036,1.036,0,0,0,1.221,1.045c9.844-2.086,55.7-28.056,63.926-39.792a3.677,3.677,0,0,0,.611-2.118v-3.65a3.678,3.678,0,0,1-.611,2.119C460.6,415.526,414.741,441.5,404.9,443.583Z" transform="translate(-403.676 -388.077)" fill="#f7f7f7" opacity="0.6"/>
        </g>
        <path id="Caminho_171" data-name="Caminho 171" d="M417.952,408.721a45.74,45.74,0,0,1-24.726-.638c-1.453-.472-1.022,5.87-.028,6.314a29.474,29.474,0,0,0,12.291,2.207c8.285,0,13.087-1.837,13.5-2.054C420.348,413.823,419.3,408.013,417.952,408.721Z" transform="translate(-94.268 -102.829)" fill="#cc851d"/>
        <path id="Caminho_172" data-name="Caminho 172" d="M428.3,401.055c1.633-2.077.671-7.489-.56-7.818-.393,3.372-4.274,6.227-5.759,7.087-1.332.772-.56,5.921.944,5.787A14,14,0,0,0,428.3,401.055Z" transform="translate(10.922 -156.567)" fill="#cc851d"/>
        <path id="Caminho_173" data-name="Caminho 173" d="M348.837,363.058a1.255,1.255,0,0,1,1.527-.25c1.2.694,3.886,1.6,4.432,2.928.782,1.9-1.129,3.964-2.058,5.5l-3.687,6.078q-3.893,6.432-7.795,12.86l-3.271,5.394a4.224,4.224,0,0,1-5.727,1.471l-2.045-1.179a1.914,1.914,0,0,1-.893-2.188C330.4,389.814,334.534,378.62,348.837,363.058Z" transform="translate(-322.851 -267.465)" fill="#a51c1c"/>
        <g id="Grupo_108" data-name="Grupo 108" transform="translate(192.088 31.23)">
          <g id="Axonometric_Cylinder" data-name="Axonometric Cylinder" transform="translate(0 16.403)">
            <path id="Caminho_174" data-name="Caminho 174" d="M369.39,355.038v5.768c-.051,3.22,2.054,6.453,6.31,8.91,8.419,4.862,22.061,4.862,30.48,0,4.159-2.4,6.259-5.537,6.31-8.683v-5.769Z" transform="translate(-369.389 -342.708)" fill="#2d2d2d"/>
            <path id="Cylinder_face" data-name="Cylinder face" d="M406.18,373.612c8.415-4.857,8.415-12.735,0-17.6s-22.061-4.857-30.48,0-8.415,12.74,0,17.6S397.761,378.474,406.18,373.612Z" transform="translate(-369.389 -352.372)" fill="#363636"/>
          </g>
          <g id="Grupo_107" data-name="Grupo 107" transform="translate(4.266)">
            <path id="Caminho_175" data-name="Caminho 175" d="M396.558,351.331c-10.431-6.421-25.6-.148-26.229,14.826l-.019,10.209c0,2.53,1.623,5.061,4.9,7.027,6.675,3.988,17.648,4.1,24.518.245,3.488-1.957,5.241-4.561,5.25-7.175l.018-10.21A17.366,17.366,0,0,0,396.558,351.331Z" transform="translate(-370.311 -348.827)" fill="#1f231e"/>
          </g>
        </g>
      </g>
      <g id="_10-2" data-name="10" transform="translate(446.415 504.225)">
        <g id="Grupo_111" data-name="Grupo 111">
          <g id="Grupo_110" data-name="Grupo 110">
            <path id="Caminho_176" data-name="Caminho 176" d="M354.026,377.805v3.909c0,2.433,1.971,5.542,4.4,6.948l7.073,4.085c2.433,1.4,4.4.569,4.4-1.865v-3.909Z" transform="translate(-351.556 -374.672)" fill="#969696" opacity="0.6"/>
            <path id="Caminho_177" data-name="Caminho 177" d="M371.441,392.02l-15.076-8.706a5.953,5.953,0,0,1-2.873-4.529c0-1.587,1.286-2.128,2.873-1.212l15.076,8.7a5.969,5.969,0,0,1,2.873,4.533C374.313,392.395,373.027,392.936,371.441,392.02Z" transform="translate(-353.492 -377.128)" fill="#ddd"/>
          </g>
        </g>
      </g>
      <path id="Caminho_178" data-name="Caminho 178" d="M425.617,384.735a8.613,8.613,0,0,0-5.972.9c-5.708,3.432-5.972,13.642-.592,22.8.3.5.634.925.944,1.4,4.358,3.284,9.687,4.238,13.771,1.892,5.764-3.308,6.828-11.828,2.368-19.036A17.526,17.526,0,0,0,425.617,384.735Z" transform="translate(316.617 154.089)" fill="#f5fdff"/>
      <path id="Caminho_179" data-name="Caminho 179" d="M418.854,407.439c-.1-.139-.176-.282-.282-.421-6.513-8.405-16.566-11.6-22.445-7.128-4.681,3.552-5.246,10.875-2.036,17.958.208.287.4.56.588.865,5.251,8.572,14.674,9.5,20.743,5.607C420.326,421.169,422.5,415.881,418.854,407.439Z" transform="translate(232.804 202.304)" fill="#f5fdff"/>
    </g>
  </g>
</svg>
