<svg id="Layer_1" data-name="Layer 1" xmlns="http://www.w3.org/2000/svg" xmlns:xlink="http://www.w3.org/1999/xlink" viewBox="0 0 451 270.96"><defs><style>.cls-1{fill:none;}.cls-2{clip-path:url(#clip-path);}.cls-3{fill:url(#linear-gradient);}.cls-4{clip-path:url(#clip-path-2);}.cls-5{fill:url(#linear-gradient-2);}.cls-6{clip-path:url(#clip-path-3);}.cls-7{fill:url(#linear-gradient-3);}.cls-8{clip-path:url(#clip-path-4);}.cls-9{fill:url(#linear-gradient-4);}</style><clipPath id="clip-path" transform="translate(-153.71 -227.04)"><path class="cls-1" d="M280.6,374.49h52.85s42-109.68,151.91-116.4c0,0-6.67-1.6-18.34-1.6-33.76,0-109.39,13.42-186.42,118"/></clipPath><linearGradient id="linear-gradient" y1="720" x2="1" y2="720" gradientTransform="matrix(0, -152.49, -152.49, 0, 110022.07, 147.45)" gradientUnits="userSpaceOnUse"><stop offset="0" stop-color="#0e73a9"/><stop offset="0.53" stop-color="#2fbdee"/><stop offset="1" stop-color="#0c73aa"/></linearGradient><clipPath id="clip-path-2" transform="translate(-153.71 -227.04)"><path class="cls-1" d="M312.22,332c33.61-35.53,65.81-55.33,93.07-66.16L380.18,227Z"/></clipPath><linearGradient id="linear-gradient-2" x1="0" y1="720" x2="1" y2="720" gradientTransform="matrix(0, -152.49, -152.49, 0, 109997.85, 147.45)" xlink:href="#linear-gradient"/><clipPath id="clip-path-3" transform="translate(-153.71 -227.04)"><path class="cls-1" d="M389,303.11l36.3,57.82c4.7,7.49,16.36,13.56,26,13.56h24.42L415.92,282.2a178.71,178.71,0,0,0-27,20.91"/></clipPath><linearGradient id="linear-gradient-3" x1="0" y1="720" x2="1" y2="720" gradientTransform="matrix(0, -152.49, -152.49, 0, 110071.42, 147.45)" xlink:href="#linear-gradient"/><clipPath id="clip-path-4" transform="translate(-153.71 -227.04)"><path class="cls-1" d="M323.94,413.57c-7.42,0-16,5.48-19.14,12.25l-22.15,47.86-27.83-60.11H232.71l38.87,83.94H293.7l38.91-83.94Zm182.73,83.94h20.94V413.57H506.67Zm-155.77-84L312,497.42h8.66c7.44,0,16-5.49,19.13-12.26L362,437.3l27.84,60.12H411.9L373,413.48Zm75-.39v84.12h17.9V430.73h13.51c5.65,0,14.33,5.89,14.43,13.24.13,7.2-6.59,12.91-10.68,12.6-.31.31-.94.31-1.57.63H448.86l18.29,31.37c2.78,4.77,9.52,8.64,15.05,8.64h9.93l-17.29-26.46c12.88-8.83,14.76-18,14.76-27.41,0-13.87-7.53-26.79-26.68-30.25Zm132.53.74a28.62,28.62,0,0,0-9.65,4.74,23.9,23.9,0,0,0-6.78,8.11,24.7,24.7,0,0,0-2.58,11.65,17.25,17.25,0,0,0,3.78,11.25,33.72,33.72,0,0,0,8.89,7.71,49.13,49.13,0,0,0,10,4.66c3.26,1.07,5.6,1.82,7,2.25,1,.32,2.35.67,3.94,1.05a30.49,30.49,0,0,1,4.75,1.52,16,16,0,0,1,4.06,2.41,4.33,4.33,0,0,1,1.74,3.38,5.7,5.7,0,0,1-2.57,4.66c-1.71,1.28-4.31,1.93-7.81,1.93a30.52,30.52,0,0,1-8.43-1.48,20,20,0,0,1-9.44-6.58L541.16,485a44.72,44.72,0,0,0,14.53,9.24A50.16,50.16,0,0,0,575.26,498a37.39,37.39,0,0,0,12.4-1.93,26.18,26.18,0,0,0,9.31-5.46,24.2,24.2,0,0,0,5.75-8.2,25.82,25.82,0,0,0,2-10.28,17,17,0,0,0-3.8-11.09,35.36,35.36,0,0,0-8.89-7.79,55.6,55.6,0,0,0-9.89-4.9,69.62,69.62,0,0,0-6.91-2.25c-1.38-.32-2.92-.7-4.57-1.13a38,38,0,0,1-4.73-1.52,12.77,12.77,0,0,1-3.79-2.25,4.16,4.16,0,0,1-1.55-3.3,5.35,5.35,0,0,1,3.47-5.14,16.59,16.59,0,0,1,7-1.6,19.51,19.51,0,0,1,8.64,2,21.73,21.73,0,0,1,7.44,6.24l14.27-14.06a35.85,35.85,0,0,0-7.47-6.51,53.1,53.1,0,0,0-9.91-4.45,46,46,0,0,0-14.68-2.06,40,40,0,0,0-11,1.53m-365.78-1.61-38.9,83.94h8.66c7.45,0,16-5.49,19.14-12.26L203.66,436l27.83,60.12h22.13l-38.88-83.94Z"/></clipPath><linearGradient id="linear-gradient-4" y1="720" x2="1" y2="720" gradientTransform="matrix(0, -85.78, -85.78, 0, 61987.1, 270.96)" gradientUnits="userSpaceOnUse"><stop offset="0" stop-color="#b1b1b1"/><stop offset="0.53" stop-color="#a9aaaa"/><stop offset="1" stop-color="#aeaeae"/></linearGradient></defs><title>LOGO</title><g class="cls-2"><rect class="cls-3" x="126.88" y="29.44" width="204.77" height="118.01"/></g><g class="cls-4"><rect class="cls-5" x="158.51" width="93.07" height="104.91"/></g><g class="cls-6"><rect class="cls-7" x="235.24" y="55.16" width="86.76" height="92.29"/></g><g class="cls-8"><rect class="cls-9" y="185.18" width="451" height="85.78"/></g></svg>